<svg width="505" height="505" viewBox="0 0 505 505" fill="none" xmlns="http://www.w3.org/2000/svg">
<circle cx="252.5" cy="252.5" r="251" stroke="#040F62" stroke-width="3"/>
<circle cx="252.5" cy="252.5" r="239" stroke="#040F62" stroke-width="3"/>
<path d="M463.5 253C463.5 367.02 369.283 459.5 253 459.5C136.717 459.5 42.5 367.02 42.5 253C42.5 138.98 136.717 46.5 253 46.5C369.283 46.5 463.5 138.98 463.5 253Z" stroke="#040F62" stroke-width="3"/>
<path d="M430.5 252.5C430.5 349.69 351.042 428.5 253 428.5C154.958 428.5 75.5 349.69 75.5 252.5C75.5 155.31 154.958 76.5 253 76.5C351.042 76.5 430.5 155.31 430.5 252.5Z" stroke="#040F62" stroke-width="3"/>
<path d="M393.5 253C393.5 330.591 330.377 393.5 252.5 393.5C174.623 393.5 111.5 330.591 111.5 253C111.5 175.409 174.623 112.5 252.5 112.5C330.377 112.5 393.5 175.409 393.5 253Z" stroke="#040F62" stroke-width="3"/>
<path d="M350.5 253C350.5 306.274 306.645 349.5 252.5 349.5C198.355 349.5 154.5 306.274 154.5 253C154.5 199.726 198.355 156.5 252.5 156.5C306.645 156.5 350.5 199.726 350.5 253Z" stroke="#040F62" stroke-width="3"/>
<path d="M315.5 253C315.5 286.369 287.563 313.5 253 313.5C218.437 313.5 190.5 286.369 190.5 253C190.5 219.631 218.437 192.5 253 192.5C287.563 192.5 315.5 219.631 315.5 253Z" stroke="#040F62" stroke-width="3"/>
<path fill-rule="evenodd" clip-rule="evenodd" d="M165 18.8284L167.776 27.986L230.452 259.952C239.51 312.896 206.951 365.027 154.048 379.321C97.8686 394.501 40.0206 361.263 24.8411 305.084L12 257.558C14.3495 388.35 121.108 493.653 252.46 493.653C266.928 493.653 281.098 492.376 294.862 489.927L297.208 498.475C312.646 495.617 328.211 490.713 342.511 485.152L340.37 477.08C340.508 477.026 339.858 477.28 339.995 477.227C340.12 477.178 340.245 477.129 340.37 477.08L275.311 236.361C270.203 185.948 302.166 137.798 352.681 124.145C408.859 108.962 466.71 142.195 481.893 198.373L492.456 237.456C484.371 111.948 380.011 12.6531 252.46 12.6531C239.01 12.6531 225.817 13.7573 212.968 15.8799L210.532 7C195.031 9.56061 179.397 13.55 165 18.8284Z" fill="url(#paint0_radial_527_119)"/>
<defs>
<radialGradient id="paint0_radial_527_119" cx="0" cy="0" r="1" gradientUnits="userSpaceOnUse" gradientTransform="translate(252.228 253.718) rotate(90) scale(253.065 240.228)">
<stop offset="0.65278" stop-color="#0A169E"/>
<stop offset="1" stop-color="#070D65"/>
</radialGradient>
</defs>
</svg>
